<?xml version="1.0" encoding="utf-8"?>
<svg xmlns="http://www.w3.org/2000/svg" width="32" height="32" fill="#000000" viewBox="0 0 256 256">
  <path d="M 166.71 53.806 L 89.291 53.806 C 78.601 53.806 69.936 62.472 69.936 73.161 L 69.936 208.645 C 69.936 219.335 78.601 228 89.291 228 L 166.71 228 C 177.4 228 186.065 219.335 186.065 208.645 L 186.065 73.161 C 186.065 62.472 177.4 53.806 166.71 53.806 Z M 173.162 208.645 C 173.162 212.208 170.273 215.097 166.71 215.097 L 89.291 215.097 C 85.728 215.097 82.839 212.208 82.839 208.645 L 82.839 73.161 C 82.839 69.598 85.728 66.71 89.291 66.71 L 166.71 66.71 C 170.273 66.71 173.162 69.598 173.162 73.161 L 173.162 208.645 Z M 160.259 189.29 C 160.259 192.853 157.37 195.742 153.807 195.742 L 102.194 195.742 C 97.228 195.742 94.124 190.366 96.607 186.065 C 97.759 184.068 99.889 182.839 102.194 182.839 L 153.807 182.839 C 157.37 182.839 160.259 185.727 160.259 189.29 Z M 95.742 34.452 C 95.742 30.888 98.631 28 102.194 28 L 153.807 28 C 158.773 28 161.877 33.376 159.394 37.677 C 158.242 39.674 156.112 40.903 153.807 40.903 L 102.194 40.903 C 98.631 40.903 95.742 38.015 95.742 34.452 Z M 160.259 157.032 C 160.259 160.595 157.37 163.484 153.807 163.484 L 102.194 163.484 C 97.228 163.484 94.124 158.108 96.607 153.806 C 97.759 151.81 99.889 150.581 102.194 150.581 L 153.807 150.581 C 157.37 150.581 160.259 153.469 160.259 157.032 Z" style="fill: rgb(255, 255, 255);"/>
</svg>