<?xml version="1.0" encoding="utf-8"?>
<svg xmlns="http://www.w3.org/2000/svg" width="32" height="32" fill="#000000" viewBox="0 0 256 256">
  <path d="M 146.396 134.282 C 147.573 136.185 147.68 138.563 146.678 140.565 L 133.775 166.371 C 131.552 170.816 125.351 171.188 122.613 167.041 C 121.342 165.116 121.195 162.66 122.226 160.597 L 130.468 144.129 L 115.097 144.129 C 110.298 144.132 107.176 139.082 109.323 134.79 L 122.226 108.984 C 124.449 104.539 130.65 104.167 133.388 108.314 C 134.659 110.239 134.806 112.695 133.775 114.758 L 125.533 131.226 L 140.904 131.226 C 143.141 131.223 145.218 132.381 146.396 134.282 Z M 102.194 40.903 L 153.807 40.903 C 158.773 40.903 161.877 35.527 159.394 31.226 C 158.242 29.23 156.112 28 153.807 28 L 102.194 28 C 97.228 28 94.124 33.377 96.607 37.677 C 97.759 39.673 99.889 40.903 102.194 40.903 Z M 186.065 73.161 L 186.065 208.645 C 186.065 219.335 177.4 228 166.71 228 L 89.291 228 C 78.601 228 69.936 219.335 69.936 208.645 L 69.936 73.161 C 69.936 62.472 78.601 53.806 89.291 53.806 L 166.71 53.806 C 177.4 53.806 186.065 62.472 186.065 73.161 Z M 173.162 73.161 C 173.162 69.598 170.273 66.71 166.71 66.71 L 89.291 66.71 C 85.728 66.71 82.839 69.598 82.839 73.161 L 82.839 208.645 C 82.839 212.208 85.728 215.097 89.291 215.097 L 166.71 215.097 C 170.273 215.097 173.162 212.208 173.162 208.645 L 173.162 73.161 Z" style="fill: rgb(255, 255, 255);"/>
</svg>