<?xml version="1.0" encoding="utf-8"?>
<svg xmlns="http://www.w3.org/2000/svg" width="32" height="32" fill="#000000" viewBox="0 0 256 256">
  <path d="M 95.742 34.452 C 95.742 30.888 98.631 28 102.194 28 L 153.807 28 C 158.773 28 161.877 33.376 159.394 37.677 C 158.242 39.674 156.112 40.903 153.807 40.903 L 102.194 40.903 C 98.631 40.903 95.742 38.015 95.742 34.452 Z M 186.065 73.161 L 186.065 208.645 C 186.065 219.335 177.4 228 166.71 228 L 89.291 228 C 78.601 228 69.936 219.335 69.936 208.645 L 69.936 73.161 C 69.936 62.472 78.601 53.806 89.291 53.806 L 166.71 53.806 C 177.4 53.806 186.065 62.472 186.065 73.161 Z M 173.162 73.161 C 173.162 69.598 170.273 66.71 166.71 66.71 L 89.291 66.71 C 85.728 66.71 82.839 69.598 82.839 73.161 L 82.839 208.645 C 82.839 212.208 85.728 215.097 89.291 215.097 L 166.71 215.097 C 170.273 215.097 173.162 212.208 173.162 208.645 L 173.162 73.161 Z M 153.807 86.065 L 102.194 86.065 C 97.228 86.065 94.124 91.441 96.607 95.742 C 97.759 97.738 99.889 98.968 102.194 98.968 L 153.807 98.968 C 158.773 98.968 161.877 93.591 159.394 89.29 C 158.242 87.294 156.112 86.065 153.807 86.065 Z M 153.807 118.323 L 102.194 118.323 C 97.228 118.323 94.124 123.699 96.607 128 C 97.759 129.996 99.889 131.226 102.194 131.226 L 153.807 131.226 C 158.773 131.226 161.877 125.849 159.394 121.548 C 158.242 119.552 156.112 118.323 153.807 118.323 Z M 153.807 150.581 L 102.194 150.581 C 97.228 150.581 94.124 155.957 96.607 160.258 C 97.759 162.254 99.889 163.484 102.194 163.484 L 153.807 163.484 C 158.773 163.484 161.877 158.108 159.394 153.806 C 158.242 151.81 156.112 150.581 153.807 150.581 Z M 153.807 182.839 L 102.194 182.839 C 97.228 182.839 94.124 188.215 96.607 192.516 C 97.759 194.512 99.889 195.742 102.194 195.742 L 153.807 195.742 C 158.773 195.742 161.877 190.366 159.394 186.065 C 158.242 184.068 156.112 182.839 153.807 182.839 Z" style="fill: rgb(255, 255, 255);"/>
</svg>